<svg version="1.1" xmlns="http://www.w3.org/2000/svg" viewBox="0 0 601.6000061035156 279.19996643066406" width="601.6000061035156" height="279.19996643066406"><!-- svg-source:excalidraw --><metadata><!-- payload-type:application/vnd.excalidraw+json --><!-- payload-version:2 --><!-- payload-start -->eyJ2ZXJzaW9uIjoiMSIsImVuY29kaW5nIjoiYnN0cmluZyIsImNvbXByZXNzZWQiOnRydWUsImVuY29kZWQiOiJ4nO1YW2/bNlx1MDAxNH7PrzC810ylSPGWtyTLmjRrXHUwMDEyNCm6dihcdTAwMDLaom3WsiRIdOy0yH/foezo5kucLlx1MDAwM4YhNmxLh4fkuX3no/xjr9Pp2vtUd1x1MDAwZjpdPe+ryISZmnX3nfxOZ7lJYlx1MDAxOMLFfZ5Ms36hObI2zVx1MDAwZt68UWnqXHKN7SXJ2Osnk8U0XHUwMDFk6YmObVx1MDAwZYp/wX2n86P4hlx1MDAxMVx1MDAxM7rJJ4Pv5E9cdTAwMTOc33wx/Obs8mKoPlx1MDAwZa6KqYXSozWZ7ltcdTAwMTVcdTAwMGYjXVxyzUFOJPZcdTAwMDSCXHUwMDE3XHUwMDEzjFx1MDAwNZT65eg9jPqMem6Q4Fx1MDAwMFx1MDAwN1x1MDAxMjPOyuGZXHTtyKlQ3/OllMJnQlx1MDAwNpT4uFRcdTAwMTlpM1x1MDAxY1mnXHUwMDEzXHUwMDEwTzqdgFx1MDAwNz72kVxmSp2FSVx1MDAwN1x1MDAxZFRKcpslY32cREnm7P7F1+5dWd1T/fEwS6ZxWOrYTMV5qjJcYlOlNzBRdG3vi9Uh1pCJbmuPT0tcdTAwMTdwS75pXHUwMDE2bDpcdTAwMWPFOnepqOKUpKpvbFx1MDAxMS1UeeEsTM/CXCJrXyubMjXRZy5t8TSKSrGJQ+2S0VWosVtcdTAwMWMud3tMeZVPspQ8VLZr7Vx1MDAxNlx1MDAwZShHkvq1TNXqTraFXHUwMDE3SVxclKAvRFx1MDAwMKlhovLA5L9B6dli0YGKcl1lwFl20i7Lemk2Ks/qeZWWWuHq80usp1efr+bh0bvb8G40O2VfuqXew/76ZVx1MDAxN5M/nmbpoPdW6N7t7C66n1x1MDAxZou+PG7u8ri/yrJkVlt3eVVlZZqGauGnzzlDXFxcdTAwMTLBfJ+X45GJx+2URUl/XFyFZq9mcFx1MDAwYp7rvVxcgWcjSFx1MDAwNTJcdTAwMDNcdTAwMTJ4XHUwMDFjSoqQwGc8XHUwMDEwiDagiTHxKEBcdTAwMTNcdTAwMDdcXFJK4HZcdTAwMDWajHuES4lcdTAwMDVcdTAwMTVCMO7LVWRi/orE9Uj01yOxob2EXHUwMDFjVI1cdTAwMTBEQCtdgzlfbMJcdTAwMWO0Q0lcdTAwMTlcdTAwMTI/g7itxYuDZ1x1MDAxNW9Vi65cdTAwMDbB9yM33qlcdTAwMDVgkMT22nx3RmPUkP6uJiZyXHUwMDExZ41VXHUwMDBlIzN0znf7YLDOuvVcdTAwMTBYXHUwMDAztFgqTExcdTAwMTjWOalcdTAwMGaLKlx1MDAxM+vsbFx1MDAxN3JLMjM0sYpuNlmupjb5oPOF7Tab6npcXPRpSVBcdTAwMWWhWzB8+laJXHUwMDBm4fHo4uLT5I/Z6NvnSe/8cGeK5ZR4zCFcdTAwMTW6MoefJoxcdH+SYVx1MDAwNfK4Y0/OJZZM8KpcdTAwMTHUXHUwMDE4llx1MDAxNyxcZlx1MDAxY05cdTAwMTB8oWqZV1xcN3CN/zHDXHUwMDEyzjhcdTAwMDHwrlx1MDAwMNs5ukK7JcNSXHRNmDBcXJ19/nWGxUxccnvjc4Qu85v5u/k3XHUwMDE0TOTt/45h13u5XHUwMDAzw1xuXHUwMDFmeVx1MDAwNEqKXHUwMDA2gCxEa1xcWCBTXHUwMDAypFx1MDAwMJk+XHUwMDA1OGGg0Fd+fUlcdTAwMWOS3fmVMURcdTAwMThQLFpcdTAwMDO4jSdaXG6JgceNn0LbtsLllGL/XHUwMDE5hbuBXfF/gV2f4LX17Ipfml23N5pWk2lcdTAwMDCYPj5XXG5KqUSiRa1cdTAwMTR51FxyY04xgs9cboBxLd4lZFx1MDAxOfaC4lxcXHUwMDFk+ECjuFwi21dcdTAwMDA3XHUwMDAwXHUwMDFj7EqkeFx1MDAxM5FSzFx1MDAwMEuCXHUwMDA19Vx1MDAwMl7impK2sDw2+4RIhMTLn5ufSUmlOE1Mm6arq05VL8VNef11f612rSbdq12N1fRcdTAwMTWSjVRuj5PJxFjw68rZtNJPrcrsXHUwMDExpNDEw2aqln8y7XLoLnpTf+r8/Vx1MDAxNXlcYlx1MDAxZXtcYoH+XGbHTvf3XHUwMDExq6lcclXqwruSflx1MDAxZIdPXHUwMDFisb03NY3AXHUwMDE0XHUwMDBiLCScfTE8ipFg1Vx1MDAwNiB6dzomhFx1MDAwYllcdTAwMGLjQzM0h67FjLRaqXqwuD7W7kU66iWz9lllb5mbrkrTa1x1MDAwYrVWOlx1MDAwYogzYavjL2RWO2tpTfQ+XHT1Sax6UbvuundGz462N5i9pYeuwehcdTAwMDKcXHUwMDBme1x1MDAwZn9cdTAwMDPCXHRcdTAwMTf3In0=<!-- payload-end --></metadata><defs><style class="style-fonts">
      @font-face { font-family: Nunito; src: url(https://esm.sh/@excalidraw/excalidraw@0.18.0/dist/prod/fonts/Nunito/Nunito-Regular-XRXI3I6Li01BKofiOc5wtlZ2di8HDIkhdTQ3j6zbXWjgeg.woff2); }</style></defs><rect x="0" y="0" width="601.6000061035156" height="279.19996643066406" fill="transparent"/><g stroke-linecap="round" transform="translate(30 30) rotate(0 75.59999084472656 71.99999237060547)"><path d="M32 0 C59.65 -1.91, 85.91 1.25, 119.2 0 M32 0 C65.93 0.27, 100.81 -1.16, 119.2 0 M119.2 0 C138.98 1.45, 152.1 11.86, 151.2 32 M119.2 0 C138.26 1.57, 152.03 8.67, 151.2 32 M151.2 32 C150.18 63.06, 152.58 94.01, 151.2 112 M151.2 32 C151.13 59.55, 151.15 86.44, 151.2 112 M151.2 112 C151.43 132.53, 140 144.79, 119.2 144 M151.2 112 C150.41 133.64, 141.99 142.37, 119.2 144 M119.2 144 C101.17 141.4, 82.71 142.89, 32 144 M119.2 144 C89 142.94, 59.72 143.53, 32 144 M32 144 C8.88 144.83, 0.97 134.99, 0 112 M32 144 C12 142.51, -0.76 134.6, 0 112 M0 112 C-0.57 86.3, 0.28 57.09, 0 32 M0 112 C1.09 88.96, -0.5 66.86, 0 32 M0 32 C-1.55 10.66, 9.11 -0.28, 32 0 M0 32 C1.19 12.28, 8.79 2.12, 32 0" stroke="#1e1e1e" stroke-width="2" fill="none"/></g><g transform="translate(71.91002655029297 88.49999237060547) rotate(0 33.689964294433594 13.5)"><text x="33.689964294433594" y="20.08" font-family="Nunito, Segoe UI Emoji" font-size="20px" fill="#1e1e1e" text-anchor="middle" style="white-space: pre;" direction="ltr" dominant-baseline="alphabetic">Block 1</text></g><g stroke-linecap="round" transform="translate(390.8000183105469 102) rotate(0 90.39999389648438 73.59998321533203)"><path d="M32 0 C62.16 -0.34, 93.36 1.09, 148.8 0 M32 0 C66.09 0.05, 101.53 0.05, 148.8 0 M148.8 0 C168.77 1.43, 179.25 10.66, 180.8 32 M148.8 0 C168.34 -0.32, 181.99 12.28, 180.8 32 M180.8 32 C182.91 51.7, 180.8 69.16, 180.8 115.2 M180.8 32 C180.2 62.22, 180.72 92.58, 180.8 115.2 M180.8 115.2 C181.03 137.63, 172.12 148.29, 148.8 147.2 M180.8 115.2 C181.24 137.91, 170.59 145.92, 148.8 147.2 M148.8 147.2 C124.78 147.95, 97.67 148.57, 32 147.2 M148.8 147.2 C114.3 148.97, 78.39 147.81, 32 147.2 M32 147.2 C11.07 145.71, -1.63 138.34, 0 115.2 M32 147.2 C10.98 148.43, -2.09 138.73, 0 115.2 M0 115.2 C-0.15 85.15, -1.15 57.25, 0 32 M0 115.2 C-0.05 95.87, -1.72 76.3, 0 32 M0 32 C-0.27 11.47, 9.77 -0.41, 32 0 M0 32 C-2.21 12.47, 11.03 0.03, 32 0" stroke="#1e1e1e" stroke-width="2" fill="none"/></g><g transform="translate(447.51004791259766 162.09998321533203) rotate(0 33.689964294433594 13.5)"><text x="33.689964294433594" y="20.08" font-family="Nunito, Segoe UI Emoji" font-size="20px" fill="#1e1e1e" text-anchor="middle" style="white-space: pre;" direction="ltr" dominant-baseline="alphabetic">Block 2</text></g><g stroke-linecap="round"><g transform="translate(181.19998168945312 115.59996032714844) rotate(0 110 31.20001220703125)"><path d="M-0.77 -0.94 C36 9.38, 182.77 50.86, 219.74 61.6 M1.02 1.18 C37.7 11.67, 182.01 52.63, 218.66 62.72" stroke="#1e1e1e" stroke-width="2" fill="none"/></g><g transform="translate(181.19998168945312 115.59996032714844) rotate(0 110 31.20001220703125)"><path d="M193.73 64.61 C197.77 63.92, 203.62 65.72, 218.66 62.72 M193.73 64.61 C202.53 63.81, 213.15 63.51, 218.66 62.72" stroke="#1e1e1e" stroke-width="2" fill="none"/></g><g transform="translate(181.19998168945312 115.59996032714844) rotate(0 110 31.20001220703125)"><path d="M198.34 48.15 C201.3 51.12, 206.11 56.64, 218.66 62.72 M198.34 48.15 C205.45 53.81, 214.26 59.97, 218.66 62.72" stroke="#1e1e1e" stroke-width="2" fill="none"/></g></g><mask/></svg>