<svg width="478" height="238" viewBox="0 0 478 238" fill="none" xmlns="http://www.w3.org/2000/svg">
<path d="M467.474 132.172H462.227V181.216H467.474V132.172Z" fill="#181A1E"/>
<path d="M33.6689 132.172H28.4219V181.216H33.6689V132.172Z" fill="#181A1E"/>
<path d="M10.0963 177.091C7.9795 177.091 6.594 176.54 5.93974 175.424C5.28547 174.308 4.95189 172.909 4.95189 171.203V110.395H0V171.395C0 174.987 0.859529 177.643 2.56576 179.336C4.28482 180.966 6.72231 181.787 9.89102 181.787C10.943 181.787 11.8025 181.723 12.4568 181.594C13.188 181.466 13.8166 181.325 14.3426 181.197V176.886C13.6242 177.014 12.9571 177.079 12.367 177.079H10.0963V177.091Z" fill="#181A1E"/>
<path d="M328.612 110.009C327.419 109.881 326.111 109.816 324.661 109.816C322.352 109.816 320.299 110.176 318.529 110.894C316.81 111.612 315.36 112.626 314.167 113.934C313.051 115.179 312.192 116.654 311.602 118.348C310.999 119.977 310.704 121.709 310.704 123.543V132.177H300.812V136.68H310.704V181.209H315.655V136.68H331.191V132.177H315.655V123.748C315.655 117.398 318.786 114.23 325.059 114.23C326.509 114.23 327.791 114.294 328.92 114.422C330.114 114.55 331.191 114.691 332.179 114.82V110.407C330.999 110.214 329.806 110.073 328.625 110.009H328.612Z" fill="#181A1E"/>
<path d="M144.266 138.165C142.483 135.946 140.276 134.176 137.633 132.867C135.068 131.559 132.091 130.904 128.73 130.904C121.739 130.904 116.132 133.752 111.912 139.435C110 142.053 108.705 144.836 108.05 147.774C107.396 150.712 107.062 153.752 107.062 156.895C107.062 160.616 107.588 164.08 108.64 167.287C109.757 170.43 111.347 173.175 113.387 175.523C115.17 177.55 117.338 179.217 119.917 180.526C122.483 181.835 125.562 182.489 129.115 182.489C131.95 182.489 134.555 182.001 136.928 181.014C139.365 179.962 141.482 178.563 143.265 176.793C144.651 175.484 145.831 173.983 146.819 172.29C147.807 170.52 148.461 168.595 148.795 166.504H143.65C143.317 168.005 142.829 169.314 142.162 170.43C141.572 171.533 140.815 172.559 139.891 173.47C137.12 176.357 133.515 177.794 129.102 177.794C126.395 177.794 124.061 177.332 122.085 176.421C120.173 175.51 118.531 174.227 117.133 172.598C115.555 170.699 114.298 168.505 113.374 166.029C112.515 163.477 112.053 160.77 111.989 157.896H149.782V156.331C149.847 155.805 149.885 155.253 149.885 154.663C149.885 151.597 149.385 148.621 148.397 145.747C147.473 142.874 146.088 140.346 144.24 138.191L144.266 138.165ZM144.856 153.367H112.104C112.104 150.943 112.502 148.659 113.297 146.504C114.093 144.349 115.17 142.45 116.556 140.821C118.005 139.179 119.75 137.909 121.803 136.998C123.843 136.023 126.229 135.523 128.73 135.523C131.232 135.523 133.477 136.01 135.453 136.998C137.428 137.986 139.109 139.32 140.494 141.013C141.88 142.643 142.932 144.541 143.663 146.696C144.381 148.788 144.779 151.007 144.856 153.367Z" fill="#181A1E"/>
<path d="M365.588 176.396C364.266 176.665 362.958 176.883 361.636 177.088C360.379 177.217 359.096 177.281 357.775 177.281C356.133 177.281 354.773 177.05 353.721 176.588C352.669 176.062 351.809 175.382 351.155 174.535C350.565 173.625 350.142 172.573 349.872 171.392C349.667 170.161 349.577 168.814 349.577 167.377V136.678H364.908V132.162H349.577V117.447L344.625 118.628V132.162H334.734V136.678H344.625V167.569C344.625 171.816 345.588 175.279 347.499 177.961C349.475 180.578 352.772 181.886 357.39 181.886C358.776 181.886 360.123 181.758 361.444 181.489C362.829 181.296 364.215 181.04 365.6 180.706V176.383L365.588 176.396Z" fill="#181A1E"/>
<path d="M388.309 176.897V176.704C388.309 174.318 386.359 172.381 383.948 172.381C381.536 172.381 379.586 174.305 379.586 176.704V176.897C379.586 179.283 381.536 181.22 383.948 181.22C386.359 181.22 388.309 179.283 388.309 176.897Z" fill="#181A1E"/>
<path d="M270.577 181.809C272.425 181.347 274.144 180.693 275.722 179.846C277.313 178.935 278.685 177.819 279.878 176.511C281.136 175.202 282.098 173.663 282.752 171.905C282.752 173.214 282.855 174.458 283.047 175.625C283.304 176.729 283.74 177.742 284.33 178.666C284.933 179.513 285.715 180.192 286.703 180.718C287.755 181.244 289.038 181.501 290.565 181.501C291.168 181.501 291.553 181.475 291.758 181.411C291.95 181.411 292.348 181.347 292.925 181.219V176.921C292.592 176.985 292.13 177.011 291.54 177.011C289.821 177.011 288.73 176.549 288.281 175.638C287.884 174.727 287.691 173.419 287.691 171.713V149.352C287.691 147.71 287.627 146.106 287.486 144.541C287.358 142.963 286.986 141.437 286.395 139.936C285.741 138.242 284.817 136.831 283.624 135.715C282.444 134.535 281.084 133.586 279.57 132.867C278.044 132.149 276.427 131.661 274.721 131.392C273.002 131.058 271.322 130.904 269.679 130.904C266.973 130.904 264.509 131.263 262.264 131.982C260.019 132.636 258.044 133.611 256.325 134.92C254.683 136.228 253.323 137.832 252.271 139.73C251.283 141.629 250.693 143.823 250.488 146.299H255.44C255.709 142.643 257.159 139.923 259.801 138.165C262.431 136.395 265.741 135.523 269.692 135.523C273.644 135.523 276.556 136.369 278.993 138.076C281.495 139.769 282.752 142.655 282.752 146.709V151.52L264.548 152.79C259.596 153.124 255.581 154.561 252.476 157.113C249.448 159.589 247.922 163.028 247.922 167.415C247.922 169.776 248.345 171.892 249.205 173.791C250.064 175.625 251.245 177.191 252.758 178.499C254.336 179.808 256.158 180.795 258.198 181.437C260.314 182.155 262.547 182.515 264.92 182.515C266.832 182.515 268.717 182.284 270.565 181.822L270.577 181.809ZM256.44 175.318C254.131 173.547 252.976 170.904 252.976 167.376C252.976 164.375 254.067 161.976 256.235 160.218C258.416 158.384 261.354 157.344 265.048 157.075L282.752 155.997V158.55C282.752 160.911 282.418 163.258 281.764 165.619C281.11 167.902 280.084 169.968 278.698 171.802C277.313 173.637 275.504 175.138 273.259 176.305C271.078 177.421 268.448 177.973 265.343 177.973C261.79 177.973 258.814 177.088 256.44 175.318Z" fill="#181A1E"/>
<path d="M447.23 181.205V176.908C446.896 176.972 446.435 176.997 445.844 176.997C444.125 176.997 443.048 176.535 442.586 175.625C442.188 174.714 441.996 173.405 441.996 171.699V149.338C441.996 147.696 441.932 146.093 441.791 144.528C441.662 142.95 441.29 141.423 440.7 139.922C440.046 138.229 439.122 136.818 437.929 135.701C436.749 134.521 435.389 133.572 433.875 132.853C432.349 132.135 430.732 131.648 429.026 131.378C427.307 131.045 425.626 130.891 423.984 130.891C421.277 130.891 418.814 131.25 416.569 131.968C414.324 132.623 412.348 133.597 410.629 134.906C408.987 136.215 407.627 137.818 406.575 139.717C405.588 141.615 404.998 143.809 404.792 146.285H409.744C410.014 142.629 411.463 139.909 414.106 138.152C416.736 136.381 420.046 135.509 423.997 135.509C427.948 135.509 430.86 136.356 433.298 138.062C435.799 139.755 437.057 142.642 437.057 146.696V151.506L418.853 152.777C413.901 153.11 409.885 154.547 406.781 157.1C403.74 159.576 402.227 163.014 402.227 167.401C402.227 169.762 402.65 171.879 403.509 173.777C404.369 175.612 405.549 177.177 407.063 178.485C408.641 179.794 410.463 180.782 412.502 181.423C414.619 182.142 416.851 182.501 419.225 182.501C421.136 182.501 423.022 182.27 424.869 181.808C426.717 181.346 428.436 180.692 430.014 179.845C431.604 178.934 432.977 177.818 434.17 176.51C435.427 175.201 436.39 173.662 437.044 171.904C437.044 173.213 437.147 174.457 437.339 175.625C437.596 176.728 438.032 177.741 438.622 178.665C439.225 179.512 440.007 180.192 440.995 180.718C442.047 181.244 443.343 181.5 444.857 181.5C445.46 181.5 445.844 181.475 446.05 181.41C446.242 181.41 446.64 181.346 447.217 181.218L447.23 181.205ZM436.069 165.605C435.415 167.889 434.388 169.954 433.003 171.789C431.617 173.623 429.808 175.124 427.563 176.292C425.383 177.408 422.753 177.959 419.648 177.959C416.094 177.959 413.118 177.074 410.745 175.304C408.436 173.534 407.281 170.891 407.281 167.363C407.281 164.361 408.372 161.962 410.54 160.204C412.72 158.37 415.658 157.331 419.353 157.061L437.057 155.984V158.537C437.057 160.897 436.723 163.245 436.069 165.605Z" fill="#181A1E"/>
<path d="M75.3163 130.903C73.5972 130.903 71.8782 131.16 70.1719 131.686C68.4529 132.135 66.8364 132.828 65.3226 133.739C63.873 134.585 62.5516 135.637 61.3714 136.882C60.1783 138.126 59.2546 139.537 58.6003 141.102L58.0103 132.174H53.6484V181.218H58.6003V156.702C58.6003 154.085 58.8697 151.545 59.3957 149.056C59.9858 146.503 60.9096 144.245 62.1668 142.283C63.4881 140.32 65.2072 138.755 67.3111 137.574C69.4279 136.33 71.9936 135.714 75.0212 135.714C79.5754 135.714 82.8339 136.882 84.8224 139.242C86.798 141.526 87.7858 144.823 87.7858 149.146V181.218H92.7378V148.851C92.7378 143.283 91.2496 138.909 88.2862 135.701C85.3869 132.494 81.0636 130.891 75.3291 130.891L75.3163 130.903Z" fill="#181A1E"/>
<path d="M235.938 131.676C232.448 131.676 229.216 132.561 226.239 134.331C223.34 136.102 221.326 138.68 220.21 142.08L219.62 132.176H215.258V181.221H220.21V157.68C220.21 155.127 220.441 152.574 220.903 150.034C221.428 147.481 222.288 145.197 223.468 143.17C224.661 141.143 226.239 139.514 228.215 138.27C230.255 137.025 232.833 136.41 235.925 136.41C236.72 136.41 237.516 136.435 238.298 136.499C239.158 136.564 239.979 136.692 240.774 136.897V131.984C239.979 131.855 239.158 131.791 238.298 131.791C237.503 131.727 236.708 131.689 235.925 131.689L235.938 131.676Z" fill="#181A1E"/>
<path d="M195.893 165.709C195.29 169.045 193.75 171.893 191.236 174.24C188.799 176.537 185.655 177.678 181.833 177.678C177.15 177.678 173.494 176.306 170.851 173.56C168.606 171.264 167.118 168.685 166.4 165.812C165.745 162.938 165.412 159.898 165.412 156.69C165.412 153.483 165.745 150.481 166.4 147.672C167.118 144.798 168.606 142.207 170.851 139.923C172.172 138.615 173.725 137.601 175.508 136.883C177.355 136.1 179.459 135.703 181.845 135.703C185.604 135.703 188.734 136.819 191.249 139.038C193.75 141.257 195.264 144.067 195.803 147.467H200.947C200.627 144.978 199.934 142.72 198.869 140.693C197.817 138.666 196.457 136.934 194.815 135.497C193.16 133.996 191.223 132.855 188.978 132.059C186.797 131.277 184.424 130.879 181.858 130.879C178.754 130.879 175.983 131.431 173.545 132.547C171.108 133.599 169.029 134.971 167.31 136.665C164.745 139.218 162.923 142.155 161.871 145.491C160.883 148.762 160.383 152.483 160.383 156.678C160.383 160.873 160.883 164.619 161.871 167.954C162.923 171.225 164.745 174.138 167.31 176.691C169.029 178.384 171.095 179.795 173.545 180.911C175.983 181.95 178.754 182.476 181.858 182.476C184.437 182.476 186.81 182.053 188.978 181.206C191.223 180.36 193.173 179.179 194.815 177.678C196.534 176.177 197.92 174.407 198.972 172.38C200.088 170.289 200.819 168.07 201.153 165.709H195.893Z" fill="#181A1E"/>
<path d="M42.3039 79.678C60.803 68.9147 101.496 51.4034 170.759 51.3264C198.943 51.3264 226.525 55.0083 253.184 58.5747C323.113 67.9654 389.259 76.8301 457.751 20.935C457.469 20.7041 457.2 20.4603 456.943 20.1909C456.289 19.5367 455.737 18.7798 455.288 17.9844C388.066 72.5581 322.728 63.8216 253.697 54.6619C226.936 51.0955 199.251 47.4136 170.861 47.4136C99.1868 47.4136 58.0706 65.4509 39.6484 76.4708C39.9307 76.7017 40.2 76.9455 40.4694 77.2021C41.2135 77.9461 41.8164 78.7672 42.3168 79.6524L42.3039 79.678Z" fill="#09C4B6"/>
<path d="M40.4564 77.2306C40.1998 76.9741 39.9304 76.7303 39.6354 76.4994C37.5956 74.8445 34.9016 74.0234 31.8611 74.0234C28.3974 74.0234 25.5108 75.2293 23.3812 77.3717C21.2645 79.5141 20.1484 82.4519 20.1484 85.8003C20.1484 89.1486 21.2645 91.9581 23.3812 94.2288C25.6134 96.4995 28.2819 97.5771 31.8611 97.5771C35.4404 97.5771 38.3268 96.3712 40.4436 94.1005C42.5603 91.8298 43.6764 89.0203 43.6764 85.4026C43.6764 83.2217 43.2017 81.3358 42.2909 79.6937C41.8034 78.8086 41.1877 77.9875 40.4436 77.2434L40.4564 77.2306Z" fill="#181A1E"/>
<path d="M457.752 20.9366C459.753 22.6172 462.293 23.5408 465.424 23.5408C468.99 23.5408 471.889 22.3349 474.006 20.0642C476.123 17.7936 477.239 14.7146 477.239 11.3663C477.239 8.01797 476.123 5.33678 474.006 3.2072C471.889 1.06479 468.887 0 465.424 0C461.96 0 459.061 1.20589 456.944 3.3483C454.827 5.4907 453.711 8.42851 453.711 11.7768C453.711 14.086 454.25 16.2028 455.289 17.9988C455.751 18.7942 456.29 19.5511 456.944 20.2053C457.2 20.4619 457.47 20.7057 457.752 20.9494V20.9366Z" fill="#181A1E"/>
<path d="M293.626 216.975H289.688V231.933H293.626V216.975Z" fill="#181A1E"/>
<path d="M418.364 216.598C416.26 216.598 414.4 217.688 413.322 219.202V216.97H411V237.624H413.322V229.67C414.566 231.312 416.324 232.3 418.364 232.3C422.302 232.3 425.022 229.26 425.022 224.436C425.022 219.612 422.302 216.598 418.364 216.598ZM417.774 230.222C415.952 230.222 414.117 229.106 413.309 227.81V221.062C414.117 219.766 415.939 218.676 417.774 218.676C420.776 218.676 422.572 221.126 422.572 224.436C422.572 227.746 420.776 230.222 417.774 230.222Z" fill="#181A1E"/>
<path d="M402.182 216.604C400.014 216.604 398 218.027 397.166 219.387C396.73 217.835 395.434 216.604 393.176 216.604C390.918 216.604 388.968 218.181 388.314 219.144V216.976H385.992V231.934H388.314V221.004C389.122 219.798 390.726 218.682 392.253 218.682C394.228 218.682 395.011 219.888 395.011 221.773V231.934H397.333V220.978C398.103 219.772 399.745 218.682 401.297 218.682C403.247 218.682 404.055 219.888 404.055 221.773V231.934H406.377V221.132C406.377 218.13 404.927 216.616 402.195 216.616L402.182 216.604Z" fill="#181A1E"/>
<path d="M434.592 216.598C432.142 216.598 430.23 217.406 428.614 219.074L429.692 220.677C431.026 219.228 432.475 218.599 434.272 218.599C436.44 218.599 438.043 219.741 438.043 221.729V224.423C436.837 223.063 435.131 222.409 433.091 222.409C430.551 222.409 427.883 223.961 427.883 227.335C427.883 230.709 430.577 232.287 433.091 232.287C435.105 232.287 436.837 231.582 438.043 230.209V231.915H440.365V221.639C440.365 218.022 437.761 216.598 434.579 216.598H434.592ZM438.056 228.772C437.158 230.017 435.58 230.632 433.964 230.632C431.77 230.632 430.243 229.272 430.243 227.348C430.243 225.424 431.757 224.102 433.964 224.102C435.58 224.102 437.158 224.718 438.056 225.924V228.772Z" fill="#181A1E"/>
<path d="M374.801 216.604C370.246 216.604 367.398 220.106 367.398 224.442C367.398 228.778 370.246 232.306 374.801 232.306C379.355 232.306 382.203 228.778 382.203 224.442C382.203 220.106 379.355 216.604 374.801 216.604ZM374.801 230.228C371.606 230.228 369.849 227.508 369.849 224.442C369.849 221.376 371.619 218.682 374.801 218.682C377.982 218.682 379.753 221.401 379.753 224.442C379.753 227.482 377.982 230.228 374.801 230.228Z" fill="#181A1E"/>
<path d="M452.755 216.598C450.497 216.598 448.444 217.868 447.392 219.138V216.97H445.07V231.928H447.392V220.998C448.29 219.792 449.997 218.676 451.818 218.676C453.832 218.676 455.192 219.484 455.192 222.14V231.928H457.489V221.434C457.489 218.188 455.846 216.598 452.755 216.598Z" fill="#181A1E"/>
<path d="M467.414 229.239L462.462 216.975H459.922L466.182 232.087L465.194 234.345C464.669 235.576 463.989 235.923 462.962 235.923C462.59 235.923 462.039 235.833 461.692 235.679L461.346 237.783C461.744 237.911 462.526 238.001 463.014 238.001C464.989 237.975 466.516 237.129 467.414 234.961L474.906 216.975H472.391L467.401 229.239H467.414Z" fill="#181A1E"/>
<path d="M306.057 216.604C304.235 216.604 302.593 217.412 301.438 218.861V216.976H297.5V237.63H301.438V230.01C302.644 231.562 304.286 232.306 306.057 232.306C309.893 232.306 312.689 229.432 312.689 224.442C312.689 219.451 309.905 216.604 306.057 216.604ZM304.812 228.804C303.542 228.804 302.093 228.034 301.438 227.097V221.799C302.093 220.837 303.542 220.093 304.812 220.093C307.07 220.093 308.584 221.863 308.584 224.429C308.584 226.995 307.07 228.791 304.812 228.791V228.804Z" fill="#181A1E"/>
<path d="M291.629 210.688C290.359 210.688 289.281 211.714 289.281 213.01C289.281 214.305 290.359 215.357 291.629 215.357C292.899 215.357 293.977 214.305 293.977 213.01C293.977 211.714 292.925 210.688 291.629 210.688Z" fill="#181A1E"/>
<path d="M280.864 227.045L277.58 216.975H274.077L270.793 227.045L268.009 216.975H263.93L268.471 231.933H272.692L275.848 221.747L279.004 231.933H283.186L287.74 216.975H283.648L280.864 227.045Z" fill="#181A1E"/>
<path d="M247.772 216.604C245.322 216.604 243.41 217.412 241.794 219.079L242.871 220.683C244.206 219.233 245.655 218.605 247.451 218.605C249.619 218.605 251.223 219.747 251.223 221.735V224.429C250.017 223.069 248.311 222.415 246.271 222.415C243.731 222.415 241.062 223.967 241.062 227.341C241.062 230.715 243.757 232.293 246.271 232.293C248.285 232.293 250.017 231.588 251.223 230.215V231.921H253.545V221.645C253.545 218.028 250.941 216.604 247.759 216.604H247.772ZM251.236 228.778C250.338 230.022 248.76 230.638 247.143 230.638C244.95 230.638 243.423 229.278 243.423 227.354C243.423 225.43 244.937 224.108 247.143 224.108C248.76 224.108 250.338 224.724 251.236 225.93V228.778Z" fill="#181A1E"/>
<path d="M319.501 219.009V216.97H315.562V231.928H319.501V222.05C320.155 221.088 321.887 220.344 323.183 220.344C323.619 220.344 323.991 220.369 324.26 220.433V216.598C322.4 216.598 320.54 217.688 319.488 219.009H319.501Z" fill="#181A1E"/>
<path d="M359.605 218.682C361.158 218.682 362.428 219.233 363.415 220.606L364.968 219.208C363.826 217.72 362.21 216.604 359.49 216.604C355.025 216.604 352.023 220.016 352.023 224.442C352.023 228.868 355.025 232.306 359.49 232.306C362.21 232.306 363.826 231.19 364.968 229.702L363.415 228.278C362.428 229.612 361.158 230.228 359.605 230.228C356.449 230.228 354.435 227.752 354.435 224.442C354.435 221.132 356.449 218.682 359.605 218.682Z" fill="#181A1E"/>
<path d="M333.668 216.598C328.742 216.598 325.766 220.19 325.766 224.436C325.766 228.682 328.742 232.3 333.668 232.3C338.594 232.3 341.596 228.708 341.596 224.436C341.596 220.164 338.62 216.598 333.668 216.598ZM333.668 228.798C331.218 228.798 329.858 226.784 329.858 224.436C329.858 222.088 331.218 220.1 333.668 220.1C336.119 220.1 337.504 222.114 337.504 224.436C337.504 226.758 336.106 228.798 333.668 228.798Z" fill="#181A1E"/>
</svg>
